<?xml version="1.0" standalone="no"?>
<!DOCTYPE svg PUBLIC "-//W3C//DTD SVG 20010904//EN"
 "http://www.w3.org/TR/2001/REC-SVG-20010904/DTD/svg10.dtd">
<svg version="1.0" xmlns="http://www.w3.org/2000/svg"
 width="225.000000pt" height="225.000000pt" viewBox="0 0 225.000000 225.000000"
 preserveAspectRatio="xMidYMid meet">

<g transform="translate(0.000000,225.000000) scale(0.100000,-0.100000)"
fill="#000000" stroke="none">
<path d="M1096 2083 c-16 -48 -41 -126 -57 -173 -15 -47 -60 -184 -99 -306
l-72 -221 -90 -7 c-50 -3 -242 -6 -426 -6 l-334 0 188 -136 c319 -230 495
-366 491 -378 -2 -6 -32 -99 -66 -206 -34 -107 -78 -240 -96 -295 -86 -255
-94 -285 -77 -275 18 11 47 32 243 175 68 50 133 97 145 105 12 8 53 37 91 64
37 27 96 69 131 93 l62 44 122 -88 c200 -145 420 -304 473 -341 28 -19 58 -42
68 -50 23 -20 22 -11 -12 88 -17 47 -64 193 -106 325 -42 132 -85 268 -97 303
-25 78 -34 66 154 204 229 168 383 280 442 323 l56 40 -415 5 c-256 3 -418 9
-423 15 -6 6 -44 116 -86 245 -153 472 -165 511 -174 526 -6 10 -16 -11 -36
-73z"/>
</g>
</svg>
